<svg version="1.1" xmlns="http://www.w3.org/2000/svg" xmlns:xlink="http://www.w3.org/1999/xlink" width="800" height="800"><defs/><g transform="scale(2,2)"><g id="background-e0ece671"><rect fill="white" stroke="none" x="0" y="0" width="400" height="400" class="dcg-svg-background"/></g><g id="graphpaper-e0ece671"><g id="grid-e0ece671"><g><path fill="none" stroke="rgb(0,0,0)" class="dcg-svg-minor-gridline" paint-order="fill stroke markers" d=" M 8.5 0 L 8.5 400" stroke-opacity="0.5" stroke-miterlimit="10" stroke-dasharray=""/><path fill="none" stroke="rgb(0,0,0)" class="dcg-svg-minor-gridline" paint-order="fill stroke markers" d=" M 68.5 0 L 68.5 400" stroke-opacity="0.5" stroke-miterlimit="10" stroke-dasharray=""/><path fill="none" stroke="rgb(0,0,0)" class="dcg-svg-minor-gridline" paint-order="fill stroke markers" d=" M 97.5 0 L 97.5 400" stroke-opacity="0.5" stroke-miterlimit="10" stroke-dasharray=""/><path fill="none" stroke="rgb(0,0,0)" class="dcg-svg-minor-gridline" paint-order="fill stroke markers" d=" M 127.5 0 L 127.5 400" stroke-opacity="0.5" stroke-miterlimit="10" stroke-dasharray=""/><path fill="none" stroke="rgb(0,0,0)" class="dcg-svg-minor-gridline" paint-order="fill stroke markers" d=" M 156.5 0 L 156.5 400" stroke-opacity="0.5" stroke-miterlimit="10" stroke-dasharray=""/><path fill="none" stroke="rgb(0,0,0)" class="dcg-svg-minor-gridline" paint-order="fill stroke markers" d=" M 186.5 0 L 186.5 400" stroke-opacity="0.5" stroke-miterlimit="10" stroke-dasharray=""/><path fill="none" stroke="rgb(0,0,0)" class="dcg-svg-minor-gridline" paint-order="fill stroke markers" d=" M 215.5 0 L 215.5 400" stroke-opacity="0.5" stroke-miterlimit="10" stroke-dasharray=""/><path fill="none" stroke="rgb(0,0,0)" class="dcg-svg-minor-gridline" paint-order="fill stroke markers" d=" M 245.5 0 L 245.5 400" stroke-opacity="0.5" stroke-miterlimit="10" stroke-dasharray=""/><path fill="none" stroke="rgb(0,0,0)" class="dcg-svg-minor-gridline" paint-order="fill stroke markers" d=" M 274.5 0 L 274.5 400" stroke-opacity="0.5" stroke-miterlimit="10" stroke-dasharray=""/><path fill="none" stroke="rgb(0,0,0)" class="dcg-svg-minor-gridline" paint-order="fill stroke markers" d=" M 304.5 0 L 304.5 400" stroke-opacity="0.5" stroke-miterlimit="10" stroke-dasharray=""/><path fill="none" stroke="rgb(0,0,0)" class="dcg-svg-minor-gridline" paint-order="fill stroke markers" d=" M 333.5 0 L 333.5 400" stroke-opacity="0.5" stroke-miterlimit="10" stroke-dasharray=""/><path fill="none" stroke="rgb(0,0,0)" class="dcg-svg-minor-gridline" paint-order="fill stroke markers" d=" M 363.5 0 L 363.5 400" stroke-opacity="0.5" stroke-miterlimit="10" stroke-dasharray=""/><path fill="none" stroke="rgb(0,0,0)" class="dcg-svg-minor-gridline" paint-order="fill stroke markers" d=" M 393.5 0 L 393.5 400" stroke-opacity="0.5" stroke-miterlimit="10" stroke-dasharray=""/><path fill="none" stroke="rgb(0,0,0)" class="dcg-svg-minor-gridline" paint-order="fill stroke markers" d=" M 0 399.5 L 400 399.5" stroke-opacity="0.5" stroke-miterlimit="10" stroke-dasharray=""/><path fill="none" stroke="rgb(0,0,0)" class="dcg-svg-minor-gridline" paint-order="fill stroke markers" d=" M 0 370.5 L 400 370.5" stroke-opacity="0.5" stroke-miterlimit="10" stroke-dasharray=""/><path fill="none" stroke="rgb(0,0,0)" class="dcg-svg-minor-gridline" paint-order="fill stroke markers" d=" M 0 340.5 L 400 340.5" stroke-opacity="0.5" stroke-miterlimit="10" stroke-dasharray=""/><path fill="none" stroke="rgb(0,0,0)" class="dcg-svg-minor-gridline" paint-order="fill stroke markers" d=" M 0 310.5 L 400 310.5" stroke-opacity="0.5" stroke-miterlimit="10" stroke-dasharray=""/><path fill="none" stroke="rgb(0,0,0)" class="dcg-svg-minor-gridline" paint-order="fill stroke markers" d=" M 0 251.5 L 400 251.5" stroke-opacity="0.5" stroke-miterlimit="10" stroke-dasharray=""/><path fill="none" stroke="rgb(0,0,0)" class="dcg-svg-minor-gridline" paint-order="fill stroke markers" d=" M 0 222.5 L 400 222.5" stroke-opacity="0.5" stroke-miterlimit="10" stroke-dasharray=""/><path fill="none" stroke="rgb(0,0,0)" class="dcg-svg-minor-gridline" paint-order="fill stroke markers" d=" M 0 192.5 L 400 192.5" stroke-opacity="0.5" stroke-miterlimit="10" stroke-dasharray=""/><path fill="none" stroke="rgb(0,0,0)" class="dcg-svg-minor-gridline" paint-order="fill stroke markers" d=" M 0 163.5 L 400 163.5" stroke-opacity="0.5" stroke-miterlimit="10" stroke-dasharray=""/><path fill="none" stroke="rgb(0,0,0)" class="dcg-svg-minor-gridline" paint-order="fill stroke markers" d=" M 0 133.5 L 400 133.5" stroke-opacity="0.5" stroke-miterlimit="10" stroke-dasharray=""/><path fill="none" stroke="rgb(0,0,0)" class="dcg-svg-minor-gridline" paint-order="fill stroke markers" d=" M 0 104.5 L 400 104.5" stroke-opacity="0.5" stroke-miterlimit="10" stroke-dasharray=""/><path fill="none" stroke="rgb(0,0,0)" class="dcg-svg-minor-gridline" paint-order="fill stroke markers" d=" M 0 74.5 L 400 74.5" stroke-opacity="0.5" stroke-miterlimit="10" stroke-dasharray=""/><path fill="none" stroke="rgb(0,0,0)" class="dcg-svg-minor-gridline" paint-order="fill stroke markers" d=" M 0 45.5 L 400 45.5" stroke-opacity="0.5" stroke-miterlimit="10" stroke-dasharray=""/><path fill="none" stroke="rgb(0,0,0)" class="dcg-svg-minor-gridline" paint-order="fill stroke markers" d=" M 0 15.5 L 400 15.5" stroke-opacity="0.5" stroke-miterlimit="10" stroke-dasharray=""/><path fill="none" stroke="rgb(0,0,0)" class="dcg-svg-major-gridline" paint-order="fill stroke markers" d=" M 186.5 0 L 186.5 400" stroke-opacity="1" stroke-miterlimit="10" stroke-dasharray=""/><path fill="none" stroke="rgb(0,0,0)" class="dcg-svg-major-gridline" paint-order="fill stroke markers" d=" M 333.5 0 L 333.5 400" stroke-opacity="1" stroke-miterlimit="10" stroke-dasharray=""/><path fill="none" stroke="rgb(0,0,0)" class="dcg-svg-major-gridline" paint-order="fill stroke markers" d=" M 0 133.5 L 400 133.5" stroke-opacity="1" stroke-miterlimit="10" stroke-dasharray=""/></g></g><g id="axis-e0ece671"><g id="yaxis-e0ece671"><title>Y axis</title><g><path fill="none" stroke="rgb(0,0,0)" class="dcg-svg-axis-line" paint-order="fill stroke markers" d=" M 39 0 L 39 400" stroke-opacity="0.9" stroke-miterlimit="10" stroke-width="2" stroke-dasharray=""/></g></g><g id="xaxis-e0ece671"><title>X axis</title><g><path fill="none" stroke="rgb(0,0,0)" class="dcg-svg-axis-line" paint-order="fill stroke markers" d=" M 0 281 L 400 281" stroke-opacity="0.9" stroke-miterlimit="10" stroke-width="2" stroke-dasharray=""/></g></g><g><g class="dcg-svg-axis-value"><text fill="none" stroke="#ffffff" font-family="Arial" font-size="20px" font-style="normal" font-weight="normal" text-decoration="normal" x="27.962988882387464" y="301.8460585550771" text-anchor="middle" stroke-miterlimit="2" stroke-width="3" stroke-dasharray="">0</text><text fill="#000000" stroke="none" font-family="Arial" font-size="20px" font-style="normal" font-weight="normal" text-decoration="normal" x="27.962988882387464" y="301.8460585550771" text-anchor="middle">0</text></g><g class="dcg-svg-axis-value"><text fill="none" stroke="#ffffff" font-family="Arial" font-size="20px" font-style="normal" font-weight="normal" text-decoration="normal" x="186.22614706197768" y="301.8460585550771" text-anchor="middle" stroke-miterlimit="2" stroke-width="3" stroke-dasharray="">10</text><text fill="#000000" stroke="none" font-family="Arial" font-size="20px" font-style="normal" font-weight="normal" text-decoration="normal" x="186.22614706197768" y="301.8460585550771" text-anchor="middle">10</text></g><g class="dcg-svg-axis-value"><text fill="none" stroke="#ffffff" font-family="Arial" font-size="20px" font-style="normal" font-weight="normal" text-decoration="normal" x="333.9277818040679" y="301.8460585550771" text-anchor="middle" stroke-miterlimit="2" stroke-width="3" stroke-dasharray="">20</text><text fill="#000000" stroke="none" font-family="Arial" font-size="20px" font-style="normal" font-weight="normal" text-decoration="normal" x="333.9277818040679" y="301.8460585550771" text-anchor="middle">20</text></g><g class="dcg-svg-axis-value"><text fill="none" stroke="#ffffff" font-family="Arial" font-size="20px" font-style="normal" font-weight="normal" text-decoration="normal" x="22.401465444887464" y="139.1444238129869" text-anchor="middle" stroke-miterlimit="2" stroke-width="3" stroke-dasharray="">10</text><text fill="#000000" stroke="none" font-family="Arial" font-size="20px" font-style="normal" font-weight="normal" text-decoration="normal" x="22.401465444887464" y="139.1444238129869" text-anchor="middle">10</text></g></g></g></g><g id="expressions-e0ece671"><g id="sketch-e0ece671"><title>表达式1</title><path fill="#c74440" stroke="none" paint-order="stroke fill markers" d="" fill-opacity="0.4"/><g><path fill="none" stroke="#c74440" class="dcg-svg-curve" paint-order="fill stroke markers" d=" M 7.105427357601002e-15 2.2966919378414445 L 7.105427357601002e-15 2.2966919378414445 L 6.835937500000007 19.21817400013066 L 13.574218750000007 35.27865255196352 L 20.21484375000001 50.504858588408666 L 26.855468750000007 65.13394326641216 L 33.39843750000001 78.9638802148186 L 39.94140625000001 92.21412906243688 L 46.38671875000001 104.69983842528131 L 52.73437500000001 116.44657708124365 L 59.08203125000001 127.64771934027343 L 65.4296875 138.3032652023707 L 71.6796875 148.26180931119612 L 77.9296875 157.69141546929114 L 84.17968750000001 166.59208367665588 L 90.4296875 174.96381393329028 L 96.58203125 182.68813036953378 L 102.5390625 189.67884092619508 L 108.30078125 195.9832091018014 L 113.8671875 201.64694877197738 L 119.3359375 206.80274068299013 L 124.609375 211.39086550023336 L 129.78515625 215.52786206473948 L 134.86328125 219.234262879967 L 139.84375 222.53021304364887 L 144.7265625 225.4354702477923 L 149.51171875 227.96940477867895 L 154.19921875 230.15099951686477 L 158.7890625 231.99884993718018 L 163.37890625 233.56144060818815 L 167.87109375 234.81456438679862 L 172.36328125 235.79443799359632 L 176.7578125 236.48860559250198 L 181.15234375 236.92127432660567 L 185.546875 237.09244419590738 L 189.94140625 237.0021152004071 L 194.3359375 236.65028734010485 L 198.73046875 236.03696061500062 L 203.125 235.16213502509441 L 207.6171875 233.99758880527398 L 212.109375 232.5597924136407 L 216.6015625 230.84874585019458 L 221.19140625 228.8182775512024 L 225.87890625 226.45017944755946 L 230.56640625 223.7845537466307 L 235.3515625 220.75650427461065 L 240.234375 217.34704815094335 L 245.21484375 213.5368150893471 L 250.29296875 209.30604739781472 L 255.56640625 204.54297280973918 L 260.9375 199.30461024917142 L 266.40625 193.56965240120164 L 272.0703125 187.20295352044297 L 277.9296875 180.15957454272205 L 283.88671875 172.5222323052235 L 290.0390625 164.13008314942678 L 296.2890625 155.07991965388112 L 302.5390625 145.5008182076052 L 308.7890625 135.39277881059894 L 315.0390625 124.75580146286234 L 321.38671875 113.41122184249585 L 327.734375 101.52104582519684 L 334.1796875 88.88969237237978 L 340.625 75.69582580594422 L 347.16796875 61.72669010013499 L 353.7109375 47.17786629353759 L 360.3515625 31.819165102743227 L 367.08984375 15.624242938409054 L 373.828125 -1.1854921125040505 L 376.4627031485058 -8" stroke-linecap="round" stroke-linejoin="round" stroke-miterlimit="10" stroke-width="5" stroke-dasharray=""/></g></g><g id="sketch-e0ece671"><title>表达式3</title><path fill="#388c46" stroke="none" paint-order="stroke fill markers" d="" fill-opacity="0.4"/><g><path fill="none" stroke="#388c46" class="dcg-svg-curve" paint-order="fill stroke markers" d=" M 7.105427357601002e-15 48.75276326930555 L 7.105427357601002e-15 48.75276326930555 L 256.60516909335325 408" stroke-linecap="round" stroke-linejoin="round" stroke-miterlimit="10" stroke-width="5" stroke-dasharray=""/></g></g></g><g id="labels-e0ece671"/><g id="labels-e0ece671"/></g></svg>