<?xml version="1.0" encoding="UTF-8"?>
<!-- Do not edit this file with editors other than draw.io -->
<!DOCTYPE svg PUBLIC "-//W3C//DTD SVG 1.1//EN" "http://www.w3.org/Graphics/SVG/1.1/DTD/svg11.dtd">
<svg xmlns="http://www.w3.org/2000/svg" style="background: transparent; background-color: transparent; color-scheme: light dark;" xmlns:xlink="http://www.w3.org/1999/xlink" version="1.1" width="376px" height="256px" viewBox="-0.5 -0.5 376 256" content="&lt;mxfile host=&quot;Electron&quot; agent=&quot;Mozilla/5.0 (X11; Linux x86_64) AppleWebKit/537.36 (KHTML, like Gecko) draw.io/28.2.5 Chrome/138.0.7204.251 Electron/37.6.1 Safari/537.36&quot; version=&quot;28.2.5&quot;&gt;&#10;  &lt;diagram id=&quot;DRjFs6OG4zUG_w8Ytt0B&quot; name=&quot;第 1 页&quot;&gt;&#10;    &lt;mxGraphModel dx=&quot;626&quot; dy=&quot;556&quot; grid=&quot;1&quot; gridSize=&quot;10&quot; guides=&quot;1&quot; tooltips=&quot;1&quot; connect=&quot;1&quot; arrows=&quot;1&quot; fold=&quot;1&quot; page=&quot;1&quot; pageScale=&quot;1&quot; pageWidth=&quot;1169&quot; pageHeight=&quot;827&quot; background=&quot;none&quot; math=&quot;0&quot; shadow=&quot;0&quot;&gt;&#10;      &lt;root&gt;&#10;        &lt;mxCell id=&quot;0&quot; /&gt;&#10;        &lt;mxCell id=&quot;1&quot; parent=&quot;0&quot; /&gt;&#10;        &lt;mxCell id=&quot;--do5cW8Tdoo67R8xk1S-1&quot; value=&quot;&quot; style=&quot;group;movable=0;resizable=0;rotatable=0;deletable=0;editable=0;locked=1;connectable=0;&quot; parent=&quot;1&quot; vertex=&quot;1&quot; connectable=&quot;0&quot;&gt;&#10;          &lt;mxGeometry x=&quot;80&quot; y=&quot;160&quot; width=&quot;360&quot; height=&quot;240&quot; as=&quot;geometry&quot; /&gt;&#10;        &lt;/mxCell&gt;&#10;        &lt;mxCell id=&quot;--do5cW8Tdoo67R8xk1S-2&quot; value=&quot;&quot; style=&quot;endArrow=classic;html=1;rounded=0;movable=0;resizable=0;rotatable=0;deletable=0;editable=0;locked=1;connectable=0;&quot; parent=&quot;--do5cW8Tdoo67R8xk1S-1&quot; edge=&quot;1&quot;&gt;&#10;          &lt;mxGeometry width=&quot;50&quot; height=&quot;50&quot; relative=&quot;1&quot; as=&quot;geometry&quot;&gt;&#10;            &lt;mxPoint x=&quot;40&quot; y=&quot;240&quot; as=&quot;sourcePoint&quot; /&gt;&#10;            &lt;mxPoint x=&quot;40&quot; as=&quot;targetPoint&quot; /&gt;&#10;          &lt;/mxGeometry&gt;&#10;        &lt;/mxCell&gt;&#10;        &lt;mxCell id=&quot;--do5cW8Tdoo67R8xk1S-3&quot; value=&quot;y&quot; style=&quot;edgeLabel;html=1;align=center;verticalAlign=middle;resizable=0;points=[];movable=0;rotatable=0;deletable=0;editable=0;locked=1;connectable=0;&quot; parent=&quot;--do5cW8Tdoo67R8xk1S-2&quot; vertex=&quot;1&quot; connectable=&quot;0&quot;&gt;&#10;          &lt;mxGeometry x=&quot;0.8867&quot; y=&quot;-1&quot; relative=&quot;1&quot; as=&quot;geometry&quot;&gt;&#10;            &lt;mxPoint x=&quot;-11&quot; as=&quot;offset&quot; /&gt;&#10;          &lt;/mxGeometry&gt;&#10;        &lt;/mxCell&gt;&#10;        &lt;mxCell id=&quot;--do5cW8Tdoo67R8xk1S-4&quot; value=&quot;&quot; style=&quot;group;movable=0;resizable=0;rotatable=0;deletable=0;editable=0;locked=1;connectable=0;&quot; parent=&quot;--do5cW8Tdoo67R8xk1S-1&quot; vertex=&quot;1&quot; connectable=&quot;0&quot;&gt;&#10;          &lt;mxGeometry y=&quot;190&quot; width=&quot;360&quot; height=&quot;20&quot; as=&quot;geometry&quot; /&gt;&#10;        &lt;/mxCell&gt;&#10;        &lt;mxCell id=&quot;--do5cW8Tdoo67R8xk1S-5&quot; value=&quot;&quot; style=&quot;endArrow=classic;html=1;rounded=0;movable=0;resizable=0;rotatable=0;deletable=0;editable=0;locked=1;connectable=0;&quot; parent=&quot;--do5cW8Tdoo67R8xk1S-4&quot; edge=&quot;1&quot;&gt;&#10;          &lt;mxGeometry width=&quot;50&quot; height=&quot;50&quot; relative=&quot;1&quot; as=&quot;geometry&quot;&gt;&#10;            &lt;mxPoint y=&quot;10&quot; as=&quot;sourcePoint&quot; /&gt;&#10;            &lt;mxPoint x=&quot;360&quot; y=&quot;10&quot; as=&quot;targetPoint&quot; /&gt;&#10;          &lt;/mxGeometry&gt;&#10;        &lt;/mxCell&gt;&#10;        &lt;mxCell id=&quot;--do5cW8Tdoo67R8xk1S-6&quot; value=&quot;x&quot; style=&quot;edgeLabel;html=1;align=center;verticalAlign=middle;resizable=0;points=[];movable=0;rotatable=0;deletable=0;editable=0;locked=1;connectable=0;&quot; parent=&quot;--do5cW8Tdoo67R8xk1S-5&quot; vertex=&quot;1&quot; connectable=&quot;0&quot;&gt;&#10;          &lt;mxGeometry x=&quot;0.97&quot; y=&quot;-2&quot; relative=&quot;1&quot; as=&quot;geometry&quot;&gt;&#10;            &lt;mxPoint x=&quot;-5&quot; y=&quot;8&quot; as=&quot;offset&quot; /&gt;&#10;          &lt;/mxGeometry&gt;&#10;        &lt;/mxCell&gt;&#10;        &lt;mxCell id=&quot;--do5cW8Tdoo67R8xk1S-7&quot; value=&quot;O&quot; style=&quot;shape=waypoint;sketch=0;size=6;pointerEvents=1;points=[];fillColor=none;resizable=0;rotatable=0;perimeter=centerPerimeter;snapToPoint=1;spacingTop=20;spacingLeft=0;spacingRight=20;movable=0;deletable=0;editable=0;locked=1;connectable=0;&quot; parent=&quot;--do5cW8Tdoo67R8xk1S-4&quot; vertex=&quot;1&quot;&gt;&#10;          &lt;mxGeometry x=&quot;30&quot; width=&quot;20&quot; height=&quot;20&quot; as=&quot;geometry&quot; /&gt;&#10;        &lt;/mxCell&gt;&#10;        &lt;mxCell id=&quot;--do5cW8Tdoo67R8xk1S-14&quot; value=&quot;&quot; style=&quot;group;movable=0;resizable=0;rotatable=0;deletable=0;editable=0;locked=1;connectable=0;&quot; parent=&quot;1&quot; vertex=&quot;1&quot; connectable=&quot;0&quot;&gt;&#10;          &lt;mxGeometry x=&quot;120&quot; y=&quot;200&quot; width=&quot;240&quot; height=&quot;160&quot; as=&quot;geometry&quot; /&gt;&#10;        &lt;/mxCell&gt;&#10;        &lt;mxCell id=&quot;--do5cW8Tdoo67R8xk1S-8&quot; value=&quot;&quot; style=&quot;endArrow=none;html=1;rounded=0;curved=1;movable=0;resizable=0;rotatable=0;deletable=0;editable=0;locked=1;connectable=0;&quot; parent=&quot;--do5cW8Tdoo67R8xk1S-14&quot; edge=&quot;1&quot;&gt;&#10;          &lt;mxGeometry width=&quot;50&quot; height=&quot;50&quot; relative=&quot;1&quot; as=&quot;geometry&quot;&gt;&#10;            &lt;mxPoint y=&quot;160&quot; as=&quot;sourcePoint&quot; /&gt;&#10;            &lt;mxPoint x=&quot;120&quot; as=&quot;targetPoint&quot; /&gt;&#10;            &lt;Array as=&quot;points&quot;&gt;&#10;              &lt;mxPoint x=&quot;100&quot; y=&quot;90&quot; /&gt;&#10;            &lt;/Array&gt;&#10;          &lt;/mxGeometry&gt;&#10;        &lt;/mxCell&gt;&#10;        &lt;mxCell id=&quot;--do5cW8Tdoo67R8xk1S-16&quot; value=&quot;x=ψ(y)&quot; style=&quot;edgeLabel;html=1;align=center;verticalAlign=middle;resizable=1;points=[];movable=1;rotatable=1;deletable=1;editable=1;locked=0;connectable=1;labelBackgroundColor=none;&quot; parent=&quot;--do5cW8Tdoo67R8xk1S-8&quot; vertex=&quot;1&quot; connectable=&quot;0&quot;&gt;&#10;          &lt;mxGeometry x=&quot;0.7971&quot; y=&quot;2&quot; relative=&quot;1&quot; as=&quot;geometry&quot;&gt;&#10;            &lt;mxPoint x=&quot;-13&quot; y=&quot;-11&quot; as=&quot;offset&quot; /&gt;&#10;          &lt;/mxGeometry&gt;&#10;        &lt;/mxCell&gt;&#10;        &lt;mxCell id=&quot;--do5cW8Tdoo67R8xk1S-9&quot; value=&quot;&quot; style=&quot;endArrow=none;html=1;rounded=0;curved=1;movable=0;resizable=0;rotatable=0;deletable=0;editable=0;locked=1;connectable=0;&quot; parent=&quot;--do5cW8Tdoo67R8xk1S-14&quot; edge=&quot;1&quot;&gt;&#10;          &lt;mxGeometry width=&quot;50&quot; height=&quot;50&quot; relative=&quot;1&quot; as=&quot;geometry&quot;&gt;&#10;            &lt;mxPoint y=&quot;160&quot; as=&quot;sourcePoint&quot; /&gt;&#10;            &lt;mxPoint x=&quot;240&quot; as=&quot;targetPoint&quot; /&gt;&#10;            &lt;Array as=&quot;points&quot;&gt;&#10;              &lt;mxPoint x=&quot;170&quot; y=&quot;140&quot; /&gt;&#10;            &lt;/Array&gt;&#10;          &lt;/mxGeometry&gt;&#10;        &lt;/mxCell&gt;&#10;        &lt;mxCell id=&quot;--do5cW8Tdoo67R8xk1S-17&quot; value=&quot;x=φ(y)&quot; style=&quot;edgeLabel;html=1;align=center;verticalAlign=middle;resizable=1;points=[];movable=1;rotatable=1;deletable=1;editable=1;locked=0;connectable=1;labelBackgroundColor=none;&quot; parent=&quot;--do5cW8Tdoo67R8xk1S-9&quot; vertex=&quot;1&quot; connectable=&quot;0&quot;&gt;&#10;          &lt;mxGeometry x=&quot;0.8661&quot; y=&quot;1&quot; relative=&quot;1&quot; as=&quot;geometry&quot;&gt;&#10;            &lt;mxPoint x=&quot;-19&quot; y=&quot;-9&quot; as=&quot;offset&quot; /&gt;&#10;          &lt;/mxGeometry&gt;&#10;        &lt;/mxCell&gt;&#10;        &lt;mxCell id=&quot;--do5cW8Tdoo67R8xk1S-10&quot; value=&quot;&quot; style=&quot;endArrow=none;html=1;rounded=0;movable=0;resizable=0;rotatable=0;deletable=0;editable=0;locked=1;connectable=0;&quot; parent=&quot;--do5cW8Tdoo67R8xk1S-14&quot; edge=&quot;1&quot;&gt;&#10;          &lt;mxGeometry width=&quot;50&quot; height=&quot;50&quot; relative=&quot;1&quot; as=&quot;geometry&quot;&gt;&#10;            &lt;mxPoint y=&quot;40&quot; as=&quot;sourcePoint&quot; /&gt;&#10;            &lt;mxPoint x=&quot;220&quot; y=&quot;40&quot; as=&quot;targetPoint&quot; /&gt;&#10;          &lt;/mxGeometry&gt;&#10;        &lt;/mxCell&gt;&#10;        &lt;mxCell id=&quot;--do5cW8Tdoo67R8xk1S-18&quot; value=&quot;d&quot; style=&quot;edgeLabel;html=1;align=center;verticalAlign=middle;resizable=0;points=[];movable=0;rotatable=0;deletable=0;editable=0;locked=1;connectable=0;&quot; parent=&quot;--do5cW8Tdoo67R8xk1S-10&quot; vertex=&quot;1&quot; connectable=&quot;0&quot;&gt;&#10;          &lt;mxGeometry x=&quot;-0.9451&quot; relative=&quot;1&quot; as=&quot;geometry&quot;&gt;&#10;            &lt;mxPoint x=&quot;-16&quot; as=&quot;offset&quot; /&gt;&#10;          &lt;/mxGeometry&gt;&#10;        &lt;/mxCell&gt;&#10;        &lt;mxCell id=&quot;--do5cW8Tdoo67R8xk1S-11&quot; value=&quot;&quot; style=&quot;endArrow=none;html=1;rounded=0;movable=0;resizable=0;rotatable=0;deletable=0;editable=0;locked=1;connectable=0;&quot; parent=&quot;--do5cW8Tdoo67R8xk1S-14&quot; edge=&quot;1&quot;&gt;&#10;          &lt;mxGeometry width=&quot;50&quot; height=&quot;50&quot; relative=&quot;1&quot; as=&quot;geometry&quot;&gt;&#10;            &lt;mxPoint y=&quot;120&quot; as=&quot;sourcePoint&quot; /&gt;&#10;            &lt;mxPoint x=&quot;130&quot; y=&quot;120&quot; as=&quot;targetPoint&quot; /&gt;&#10;          &lt;/mxGeometry&gt;&#10;        &lt;/mxCell&gt;&#10;        &lt;mxCell id=&quot;--do5cW8Tdoo67R8xk1S-19&quot; value=&quot;c&quot; style=&quot;edgeLabel;html=1;align=center;verticalAlign=middle;resizable=0;points=[];movable=0;rotatable=0;deletable=0;editable=0;locked=1;connectable=0;&quot; parent=&quot;--do5cW8Tdoo67R8xk1S-11&quot; vertex=&quot;1&quot; connectable=&quot;0&quot;&gt;&#10;          &lt;mxGeometry x=&quot;-0.89&quot; relative=&quot;1&quot; as=&quot;geometry&quot;&gt;&#10;            &lt;mxPoint x=&quot;-17&quot; as=&quot;offset&quot; /&gt;&#10;          &lt;/mxGeometry&gt;&#10;        &lt;/mxCell&gt;&#10;        &lt;mxCell id=&quot;--do5cW8Tdoo67R8xk1S-22&quot; value=&quot;&quot; style=&quot;rhombus;whiteSpace=wrap;html=1;rotation=-25;sketch=1;curveFitting=1;jiggle=2;fillColor=#1ba1e2;fontColor=#ffffff;strokeColor=none;labelBackgroundColor=none;&quot; parent=&quot;1&quot; vertex=&quot;1&quot;&gt;&#10;          &lt;mxGeometry x=&quot;165.22&quot; y=&quot;242.28&quot; width=&quot;170&quot; height=&quot;72.18&quot; as=&quot;geometry&quot; /&gt;&#10;        &lt;/mxCell&gt;&#10;      &lt;/root&gt;&#10;    &lt;/mxGraphModel&gt;&#10;  &lt;/diagram&gt;&#10;&lt;/mxfile&gt;&#10;"><defs/><g><g data-cell-id="0"><g data-cell-id="1"><g data-cell-id="--do5cW8Tdoo67R8xk1S-1"><g/><g data-cell-id="--do5cW8Tdoo67R8xk1S-2"><g><path d="M 47 247 L 47 13.37" fill="none" stroke="#000000" stroke-miterlimit="10" pointer-events="stroke" style="stroke: light-dark(rgb(0, 0, 0), rgb(255, 255, 255));"/><path d="M 47 8.12 L 50.5 15.12 L 47 13.37 L 43.5 15.12 Z" fill="#000000" stroke="#000000" stroke-miterlimit="10" pointer-events="all" style="fill: light-dark(rgb(0, 0, 0), rgb(255, 255, 255)); stroke: light-dark(rgb(0, 0, 0), rgb(255, 255, 255));"/></g><g data-cell-id="--do5cW8Tdoo67R8xk1S-3"><g><g><switch><foreignObject style="overflow: visible; text-align: left;" pointer-events="none" width="100%" height="100%" requiredFeatures="http://www.w3.org/TR/SVG11/feature#Extensibility"><div xmlns="http://www.w3.org/1999/xhtml" style="display: flex; align-items: unsafe center; justify-content: unsafe center; width: 1px; height: 1px; padding-top: 22px; margin-left: 38px;"><div style="box-sizing: border-box; font-size: 0; text-align: center; color: #000000; background-color: #ffffff; "><div style="display: inline-block; font-size: 11px; font-family: Helvetica; color: light-dark(#000000, #ffffff); line-height: 1.2; pointer-events: all; background-color: light-dark(#ffffff, var(--ge-dark-color, #121212)); white-space: nowrap; ">y</div></div></div></foreignObject><text x="38" y="25" fill="light-dark(#000000, #ffffff)" font-family="Helvetica" font-size="11px" text-anchor="middle">y</text></switch></g></g></g></g><g data-cell-id="--do5cW8Tdoo67R8xk1S-4"><g/><g data-cell-id="--do5cW8Tdoo67R8xk1S-5"><g><path d="M 7 207 L 360.63 207" fill="none" stroke="#000000" stroke-miterlimit="10" pointer-events="stroke" style="stroke: light-dark(rgb(0, 0, 0), rgb(255, 255, 255));"/><path d="M 365.88 207 L 358.88 210.5 L 360.63 207 L 358.88 203.5 Z" fill="#000000" stroke="#000000" stroke-miterlimit="10" pointer-events="all" style="fill: light-dark(rgb(0, 0, 0), rgb(255, 255, 255)); stroke: light-dark(rgb(0, 0, 0), rgb(255, 255, 255));"/></g><g data-cell-id="--do5cW8Tdoo67R8xk1S-6"><g><g><switch><foreignObject style="overflow: visible; text-align: left;" pointer-events="none" width="100%" height="100%" requiredFeatures="http://www.w3.org/TR/SVG11/feature#Extensibility"><div xmlns="http://www.w3.org/1999/xhtml" style="display: flex; align-items: unsafe center; justify-content: unsafe center; width: 1px; height: 1px; padding-top: 218px; margin-left: 358px;"><div style="box-sizing: border-box; font-size: 0; text-align: center; color: #000000; background-color: #ffffff; "><div style="display: inline-block; font-size: 11px; font-family: Helvetica; color: light-dark(#000000, #ffffff); line-height: 1.2; pointer-events: all; background-color: light-dark(#ffffff, var(--ge-dark-color, #121212)); white-space: nowrap; ">x</div></div></div></foreignObject><text x="358" y="221" fill="light-dark(#000000, #ffffff)" font-family="Helvetica" font-size="11px" text-anchor="middle">x</text></switch></g></g></g></g><g data-cell-id="--do5cW8Tdoo67R8xk1S-7"><g><ellipse cx="47" cy="207" rx="3" ry="3" fill="#000000" stroke="none" pointer-events="all" style="fill: light-dark(rgb(0, 0, 0), rgb(255, 255, 255));"/><rect x="37" y="197" width="20" height="20" fill="none" stroke="none" pointer-events="all"/></g><g><g fill="#000000" font-family="Helvetica" text-anchor="middle" font-size="12px" style="fill: light-dark(rgb(0, 0, 0), rgb(255, 255, 255));"><text x="37" y="222">O</text></g></g></g></g></g><g data-cell-id="--do5cW8Tdoo67R8xk1S-14"><g/><g data-cell-id="--do5cW8Tdoo67R8xk1S-8"><g><path d="M 47 207 Q 147 137 167 47" fill="none" stroke="#000000" stroke-miterlimit="10" pointer-events="stroke" style="stroke: light-dark(rgb(0, 0, 0), rgb(255, 255, 255));"/></g><g data-cell-id="--do5cW8Tdoo67R8xk1S-16"><g><g><switch><foreignObject style="overflow: visible; text-align: left;" pointer-events="none" width="100%" height="100%" requiredFeatures="http://www.w3.org/TR/SVG11/feature#Extensibility"><div xmlns="http://www.w3.org/1999/xhtml" style="display: flex; align-items: unsafe center; justify-content: unsafe center; width: 1px; height: 1px; padding-top: 57px; margin-left: 148px;"><div style="box-sizing: border-box; font-size: 0; text-align: center; color: #000000; "><div style="display: inline-block; font-size: 11px; font-family: Helvetica; color: light-dark(#000000, #ffffff); line-height: 1.2; pointer-events: all; white-space: nowrap; ">x=ψ(y)</div></div></div></foreignObject><text x="148" y="60" fill="light-dark(#000000, #ffffff)" font-family="Helvetica" font-size="11px" text-anchor="middle">x=ψ(y)</text></switch></g></g></g></g><g data-cell-id="--do5cW8Tdoo67R8xk1S-9"><g><path d="M 47 207 Q 217 187 287 47" fill="none" stroke="#000000" stroke-miterlimit="10" pointer-events="stroke" style="stroke: light-dark(rgb(0, 0, 0), rgb(255, 255, 255));"/></g><g data-cell-id="--do5cW8Tdoo67R8xk1S-17"><g><g><switch><foreignObject style="overflow: visible; text-align: left;" pointer-events="none" width="100%" height="100%" requiredFeatures="http://www.w3.org/TR/SVG11/feature#Extensibility"><div xmlns="http://www.w3.org/1999/xhtml" style="display: flex; align-items: unsafe center; justify-content: unsafe center; width: 1px; height: 1px; padding-top: 57px; margin-left: 258px;"><div style="box-sizing: border-box; font-size: 0; text-align: center; color: #000000; "><div style="display: inline-block; font-size: 11px; font-family: Helvetica; color: light-dark(#000000, #ffffff); line-height: 1.2; pointer-events: all; white-space: nowrap; ">x=φ(y)</div></div></div></foreignObject><text x="258" y="61" fill="light-dark(#000000, #ffffff)" font-family="Helvetica" font-size="11px" text-anchor="middle">x=φ(y)</text></switch></g></g></g></g><g data-cell-id="--do5cW8Tdoo67R8xk1S-10"><g><path d="M 47 87 L 267 87" fill="none" stroke="#000000" stroke-miterlimit="10" pointer-events="stroke" style="stroke: light-dark(rgb(0, 0, 0), rgb(255, 255, 255));"/></g><g data-cell-id="--do5cW8Tdoo67R8xk1S-18"><g><g><switch><foreignObject style="overflow: visible; text-align: left;" pointer-events="none" width="100%" height="100%" requiredFeatures="http://www.w3.org/TR/SVG11/feature#Extensibility"><div xmlns="http://www.w3.org/1999/xhtml" style="display: flex; align-items: unsafe center; justify-content: unsafe center; width: 1px; height: 1px; padding-top: 88px; margin-left: 38px;"><div style="box-sizing: border-box; font-size: 0; text-align: center; color: #000000; background-color: #ffffff; "><div style="display: inline-block; font-size: 11px; font-family: Helvetica; color: light-dark(#000000, #ffffff); line-height: 1.2; pointer-events: all; background-color: light-dark(#ffffff, var(--ge-dark-color, #121212)); white-space: nowrap; ">d</div></div></div></foreignObject><text x="38" y="91" fill="light-dark(#000000, #ffffff)" font-family="Helvetica" font-size="11px" text-anchor="middle">d</text></switch></g></g></g></g><g data-cell-id="--do5cW8Tdoo67R8xk1S-11"><g><path d="M 47 167 L 177 167" fill="none" stroke="#000000" stroke-miterlimit="10" pointer-events="stroke" style="stroke: light-dark(rgb(0, 0, 0), rgb(255, 255, 255));"/></g><g data-cell-id="--do5cW8Tdoo67R8xk1S-19"><g><g><switch><foreignObject style="overflow: visible; text-align: left;" pointer-events="none" width="100%" height="100%" requiredFeatures="http://www.w3.org/TR/SVG11/feature#Extensibility"><div xmlns="http://www.w3.org/1999/xhtml" style="display: flex; align-items: unsafe center; justify-content: unsafe center; width: 1px; height: 1px; padding-top: 168px; margin-left: 38px;"><div style="box-sizing: border-box; font-size: 0; text-align: center; color: #000000; background-color: #ffffff; "><div style="display: inline-block; font-size: 11px; font-family: Helvetica; color: light-dark(#000000, #ffffff); line-height: 1.2; pointer-events: all; background-color: light-dark(#ffffff, var(--ge-dark-color, #121212)); white-space: nowrap; ">c</div></div></div></foreignObject><text x="38" y="171" fill="light-dark(#000000, #ffffff)" font-family="Helvetica" font-size="11px" text-anchor="middle">c</text></switch></g></g></g></g></g><g data-cell-id="--do5cW8Tdoo67R8xk1S-22"><g><path d="M 177.22 89.28 L 262.22 125.37 L 177.22 161.46 L 92.22 125.37 Z" fill="none" stroke="none" transform="rotate(-25,177.22,125.37)" pointer-events="all"/><path d="M 91.97 125.66 C 91.97 125.66 91.97 125.66 91.97 125.66 M 91.97 125.66 C 91.97 125.66 91.97 125.66 91.97 125.66 M 96.3 126.77 C 97.49 124.96 99.9 124.66 100.89 121.49 M 96.3 126.77 C 97.65 125.19 99.8 122.45 100.89 121.49 M 99.98 128.64 C 100.9 125.08 102.66 124.46 109.16 118.08 M 99.98 128.64 C 102.82 125.2 103.2 124.73 109.16 118.08 M 103.65 130.51 C 108.28 125.43 115.65 122.55 117.43 114.66 M 103.65 130.51 C 108.48 125.32 114.19 120.17 117.43 114.66 M 107.98 131.63 C 110.97 123.63 117.35 120.69 125.7 111.25 M 107.98 131.63 C 110.15 127.21 113.37 124.57 125.7 111.25 M 111.66 133.49 C 120.29 126.25 119.2 118.29 133.96 107.83 M 111.66 133.49 C 120.43 122.25 130.68 115.05 133.96 107.83 M 115.33 135.36 C 120.76 122.56 132.27 113.68 142.89 103.67 M 115.33 135.36 C 126.25 124.06 135.11 115.75 142.89 103.67 M 119.01 137.23 C 127.29 126.69 133.55 120.41 151.15 100.25 M 119.01 137.23 C 127.19 126.27 135.91 118.8 151.15 100.25 M 123.34 138.35 C 137.33 129.51 141.34 111.94 159.42 96.84 M 123.34 138.35 C 135.45 120.11 152.89 105.64 159.42 96.84 M 127.01 140.22 C 136.14 131.15 146.23 116.35 167.69 93.43 M 127.01 140.22 C 135.59 128.51 142.7 118.43 167.69 93.43 M 130.69 142.09 C 143.22 125.29 162.93 110.81 175.96 90.01 M 130.69 142.09 C 139.43 127.78 151.88 114.77 175.96 90.01 M 135.02 143.2 C 143.01 133.76 154.59 117.57 179.63 91.88 M 135.02 143.2 C 143.95 135.04 152.6 123.33 179.63 91.88 M 138.69 145.07 C 155.67 123.07 171.09 106.74 183.96 93 M 138.69 145.07 C 151.58 131.63 158.98 119.34 183.96 93 M 142.37 146.94 C 156.39 128.74 171.05 109.02 187.64 94.87 M 142.37 146.94 C 158.64 129.47 171.02 111.78 187.64 94.87 M 146.7 148.06 C 157.33 137.26 170.59 127.19 191.31 96.74 M 146.7 148.06 C 156.91 134.15 166.71 120.72 191.31 96.74 M 150.37 149.93 C 164.5 138.39 178.27 123.24 195.64 97.85 M 150.37 149.93 C 163.64 134.7 173.85 123.64 195.64 97.85 M 154.05 151.8 C 165.24 135 181.08 113.48 199.32 99.72 M 154.05 151.8 C 169.98 133.33 182.08 118.96 199.32 99.72 M 157.72 153.67 C 166.55 139.64 180.57 125.33 202.99 101.59 M 157.72 153.67 C 170.23 139.3 183.33 120.38 202.99 101.59 M 162.06 154.78 C 176.98 142.09 194.86 117.63 206.67 103.46 M 162.06 154.78 C 172.57 141.22 184.96 127.84 206.67 103.46 M 165.73 156.65 C 180.6 140.18 191.82 122.46 211 104.57 M 165.73 156.65 C 177.87 142.12 189.96 130.26 211 104.57 M 169.41 158.52 C 182.6 144.68 187.69 135.39 214.67 106.44 M 169.41 158.52 C 183.51 142.25 195.51 127.01 214.67 106.44 M 173.74 159.63 C 179.54 143.17 196.46 134.17 218.35 108.31 M 173.74 159.63 C 188.95 144.27 201.37 125.85 218.35 108.31 M 177.41 161.5 C 192.02 144.88 208.23 130.85 222.68 109.43 M 177.41 161.5 C 194.84 141.33 211.72 118.67 222.68 109.43 M 185.68 158.09 C 195.68 143.25 207.86 135.92 226.35 111.3 M 185.68 158.09 C 200.37 143 212.2 126.71 226.35 111.3 M 193.95 154.68 C 204.61 134.86 221.25 119.93 230.03 113.17 M 193.95 154.68 C 202.35 144.85 212.3 134.84 230.03 113.17 M 202.87 150.51 C 207.23 140.75 216.66 135.4 234.36 114.28 M 202.87 150.51 C 209.33 141.52 219.35 131.11 234.36 114.28 M 211.14 147.09 C 218.92 135.08 234.98 124.14 238.03 116.15 M 211.14 147.09 C 220.72 136.08 225.8 128.54 238.03 116.15 M 219.4 143.68 C 229.87 135.13 234.82 129.81 241.71 118.02 M 219.4 143.68 C 225.73 137.04 235.64 126.16 241.71 118.02 M 227.67 140.27 C 228.74 133.24 240.21 128.93 245.38 119.89 M 227.67 140.27 C 234.42 132.33 241.65 127.79 245.38 119.89 M 235.94 136.85 C 243.03 131.73 243.4 127.07 249.72 121.01 M 235.94 136.85 C 240.25 131.91 246.76 122.68 249.72 121.01 M 244.86 132.69 C 247.73 132.15 247.7 128.32 253.39 122.88 M 244.86 132.69 C 247.03 131.07 249.07 127.63 253.39 122.88 M 253.13 129.27 C 253.29 128.16 255.26 126.95 257.07 124.74 M 253.13 129.27 C 254.09 128.51 255.26 127.58 257.07 124.74 M 261.4 125.86 C 261.4 125.86 261.4 125.86 261.4 125.86 M 261.4 125.86 C 261.4 125.86 261.4 125.86 261.4 125.86" fill="none" stroke="#1ba1e2" stroke-width="0.5" stroke-linejoin="round" stroke-linecap="round" stroke-miterlimit="10" transform="rotate(-25,177.22,125.37)" pointer-events="all" style="stroke: rgb(27, 161, 226);"/></g></g></g></g></g><switch><g requiredFeatures="http://www.w3.org/TR/SVG11/feature#Extensibility"/><a transform="translate(0,-5)" xlink:href="https://www.drawio.com/doc/faq/svg-export-text-problems" target="_blank"><text text-anchor="middle" font-size="10px" x="50%" y="100%">Text is not SVG - cannot display</text></a></switch></svg>