<?xml version="1.0" encoding="UTF-8"?>
<!-- Do not edit this file with editors other than draw.io -->
<!DOCTYPE svg PUBLIC "-//W3C//DTD SVG 1.1//EN" "http://www.w3.org/Graphics/SVG/1.1/DTD/svg11.dtd">
<svg xmlns="http://www.w3.org/2000/svg" style="background: transparent; background-color: transparent; color-scheme: light dark;" xmlns:xlink="http://www.w3.org/1999/xlink" version="1.1" width="376px" height="256px" viewBox="-0.5 -0.5 376 256" content="&lt;mxfile host=&quot;Electron&quot; agent=&quot;Mozilla/5.0 (X11; Linux x86_64) AppleWebKit/537.36 (KHTML, like Gecko) draw.io/28.2.5 Chrome/138.0.7204.251 Electron/37.6.1 Safari/537.36&quot; version=&quot;28.2.5&quot;&gt;&#10;  &lt;diagram id=&quot;52dwJ0BT8hUerv6SxJla&quot; name=&quot;第 1 页&quot;&gt;&#10;    &lt;mxGraphModel dx=&quot;646&quot; dy=&quot;578&quot; grid=&quot;1&quot; gridSize=&quot;10&quot; guides=&quot;1&quot; tooltips=&quot;1&quot; connect=&quot;1&quot; arrows=&quot;1&quot; fold=&quot;1&quot; page=&quot;1&quot; pageScale=&quot;1&quot; pageWidth=&quot;1169&quot; pageHeight=&quot;827&quot; math=&quot;0&quot; shadow=&quot;0&quot;&gt;&#10;      &lt;root&gt;&#10;        &lt;mxCell id=&quot;0&quot; /&gt;&#10;        &lt;mxCell id=&quot;1&quot; parent=&quot;0&quot; /&gt;&#10;        &lt;mxCell id=&quot;3auiam6iOMudNAk3CVAF-1&quot; value=&quot;&quot; style=&quot;group;movable=0;resizable=0;rotatable=0;deletable=0;editable=0;locked=1;connectable=0;&quot; parent=&quot;1&quot; vertex=&quot;1&quot; connectable=&quot;0&quot;&gt;&#10;          &lt;mxGeometry x=&quot;80&quot; y=&quot;160&quot; width=&quot;360&quot; height=&quot;240&quot; as=&quot;geometry&quot; /&gt;&#10;        &lt;/mxCell&gt;&#10;        &lt;mxCell id=&quot;3auiam6iOMudNAk3CVAF-2&quot; value=&quot;&quot; style=&quot;endArrow=classic;html=1;rounded=0;movable=0;resizable=0;rotatable=0;deletable=0;editable=0;locked=1;connectable=0;&quot; parent=&quot;3auiam6iOMudNAk3CVAF-1&quot; edge=&quot;1&quot;&gt;&#10;          &lt;mxGeometry width=&quot;50&quot; height=&quot;50&quot; relative=&quot;1&quot; as=&quot;geometry&quot;&gt;&#10;            &lt;mxPoint x=&quot;40&quot; y=&quot;240&quot; as=&quot;sourcePoint&quot; /&gt;&#10;            &lt;mxPoint x=&quot;40&quot; as=&quot;targetPoint&quot; /&gt;&#10;          &lt;/mxGeometry&gt;&#10;        &lt;/mxCell&gt;&#10;        &lt;mxCell id=&quot;3auiam6iOMudNAk3CVAF-3&quot; value=&quot;y&quot; style=&quot;edgeLabel;html=1;align=center;verticalAlign=middle;resizable=0;points=[];movable=0;rotatable=0;deletable=0;editable=0;locked=1;connectable=0;&quot; parent=&quot;3auiam6iOMudNAk3CVAF-2&quot; vertex=&quot;1&quot; connectable=&quot;0&quot;&gt;&#10;          &lt;mxGeometry x=&quot;0.8867&quot; y=&quot;-1&quot; relative=&quot;1&quot; as=&quot;geometry&quot;&gt;&#10;            &lt;mxPoint x=&quot;-11&quot; as=&quot;offset&quot; /&gt;&#10;          &lt;/mxGeometry&gt;&#10;        &lt;/mxCell&gt;&#10;        &lt;mxCell id=&quot;3auiam6iOMudNAk3CVAF-4&quot; value=&quot;&quot; style=&quot;group;movable=0;resizable=0;rotatable=0;deletable=0;editable=0;locked=1;connectable=0;&quot; parent=&quot;3auiam6iOMudNAk3CVAF-1&quot; vertex=&quot;1&quot; connectable=&quot;0&quot;&gt;&#10;          &lt;mxGeometry y=&quot;190&quot; width=&quot;360&quot; height=&quot;20&quot; as=&quot;geometry&quot; /&gt;&#10;        &lt;/mxCell&gt;&#10;        &lt;mxCell id=&quot;3auiam6iOMudNAk3CVAF-5&quot; value=&quot;&quot; style=&quot;endArrow=classic;html=1;rounded=0;movable=0;resizable=0;rotatable=0;deletable=0;editable=0;locked=1;connectable=0;&quot; parent=&quot;3auiam6iOMudNAk3CVAF-4&quot; edge=&quot;1&quot;&gt;&#10;          &lt;mxGeometry width=&quot;50&quot; height=&quot;50&quot; relative=&quot;1&quot; as=&quot;geometry&quot;&gt;&#10;            &lt;mxPoint y=&quot;10&quot; as=&quot;sourcePoint&quot; /&gt;&#10;            &lt;mxPoint x=&quot;360&quot; y=&quot;10&quot; as=&quot;targetPoint&quot; /&gt;&#10;          &lt;/mxGeometry&gt;&#10;        &lt;/mxCell&gt;&#10;        &lt;mxCell id=&quot;3auiam6iOMudNAk3CVAF-6&quot; value=&quot;x&quot; style=&quot;edgeLabel;html=1;align=center;verticalAlign=middle;resizable=0;points=[];movable=0;rotatable=0;deletable=0;editable=0;locked=1;connectable=0;&quot; parent=&quot;3auiam6iOMudNAk3CVAF-5&quot; vertex=&quot;1&quot; connectable=&quot;0&quot;&gt;&#10;          &lt;mxGeometry x=&quot;0.97&quot; y=&quot;-2&quot; relative=&quot;1&quot; as=&quot;geometry&quot;&gt;&#10;            &lt;mxPoint x=&quot;-5&quot; y=&quot;8&quot; as=&quot;offset&quot; /&gt;&#10;          &lt;/mxGeometry&gt;&#10;        &lt;/mxCell&gt;&#10;        &lt;mxCell id=&quot;3auiam6iOMudNAk3CVAF-7&quot; value=&quot;O&quot; style=&quot;shape=waypoint;sketch=0;size=6;pointerEvents=1;points=[];fillColor=none;resizable=0;rotatable=0;perimeter=centerPerimeter;snapToPoint=1;spacingTop=20;spacingLeft=0;spacingRight=20;movable=0;deletable=0;editable=0;locked=1;connectable=0;&quot; parent=&quot;3auiam6iOMudNAk3CVAF-4&quot; vertex=&quot;1&quot;&gt;&#10;          &lt;mxGeometry x=&quot;30&quot; width=&quot;20&quot; height=&quot;20&quot; as=&quot;geometry&quot; /&gt;&#10;        &lt;/mxCell&gt;&#10;        &lt;mxCell id=&quot;3auiam6iOMudNAk3CVAF-11&quot; value=&quot;&quot; style=&quot;verticalLabelPosition=bottom;verticalAlign=top;html=1;shape=mxgraph.basic.orthogonal_triangle;pointerEvents=0;align=center;fontFamily=Helvetica;fontSize=12;resizable=0;fillColor=#b1ddf0;sketch=1;curveFitting=1;jiggle=2;strokeColor=#10739e;opacity=25;movable=0;rotatable=0;deletable=0;editable=0;locked=1;connectable=0;&quot; parent=&quot;1&quot; vertex=&quot;1&quot;&gt;&#10;          &lt;mxGeometry x=&quot;120&quot; y=&quot;240&quot; width=&quot;120&quot; height=&quot;120&quot; as=&quot;geometry&quot; /&gt;&#10;        &lt;/mxCell&gt;&#10;        &lt;mxCell id=&quot;3auiam6iOMudNAk3CVAF-13&quot; value=&quot;&quot; style=&quot;endArrow=none;html=1;rounded=0;fontFamily=Helvetica;fontSize=12;fontColor=default;resizable=1;exitX=0;exitY=0;exitDx=0;exitDy=0;exitPerimeter=0;entryX=1;entryY=1;entryDx=0;entryDy=0;entryPerimeter=0;&quot; parent=&quot;1&quot; source=&quot;3auiam6iOMudNAk3CVAF-11&quot; target=&quot;3auiam6iOMudNAk3CVAF-11&quot; edge=&quot;1&quot;&gt;&#10;          &lt;mxGeometry width=&quot;50&quot; height=&quot;50&quot; relative=&quot;1&quot; as=&quot;geometry&quot;&gt;&#10;            &lt;mxPoint x=&quot;60&quot; y=&quot;240&quot; as=&quot;sourcePoint&quot; /&gt;&#10;            &lt;mxPoint x=&quot;110&quot; y=&quot;190&quot; as=&quot;targetPoint&quot; /&gt;&#10;          &lt;/mxGeometry&gt;&#10;        &lt;/mxCell&gt;&#10;        &lt;mxCell id=&quot;3auiam6iOMudNAk3CVAF-14&quot; value=&quot;x+y=2&quot; style=&quot;edgeLabel;html=1;align=center;verticalAlign=middle;resizable=0;points=[];pointerEvents=0;fontFamily=Helvetica;fontSize=12;fontColor=default;fillColor=none;gradientColor=none;labelBackgroundColor=none;&quot; parent=&quot;3auiam6iOMudNAk3CVAF-13&quot; vertex=&quot;1&quot; connectable=&quot;0&quot;&gt;&#10;          &lt;mxGeometry x=&quot;0.3261&quot; y=&quot;-1&quot; relative=&quot;1&quot; as=&quot;geometry&quot;&gt;&#10;            &lt;mxPoint x=&quot;-9&quot; y=&quot;-30&quot; as=&quot;offset&quot; /&gt;&#10;          &lt;/mxGeometry&gt;&#10;        &lt;/mxCell&gt;&#10;        &lt;mxCell id=&quot;3auiam6iOMudNAk3CVAF-15&quot; value=&quot;D&quot; style=&quot;edgeLabel;html=1;align=center;verticalAlign=middle;resizable=0;points=[];pointerEvents=0;fontFamily=Helvetica;fontSize=12;fontColor=default;fillColor=none;gradientColor=none;labelBackgroundColor=none;&quot; parent=&quot;3auiam6iOMudNAk3CVAF-13&quot; vertex=&quot;1&quot; connectable=&quot;0&quot;&gt;&#10;          &lt;mxGeometry x=&quot;0.194&quot; y=&quot;1&quot; relative=&quot;1&quot; as=&quot;geometry&quot;&gt;&#10;            &lt;mxPoint x=&quot;-42&quot; y=&quot;9&quot; as=&quot;offset&quot; /&gt;&#10;          &lt;/mxGeometry&gt;&#10;        &lt;/mxCell&gt;&#10;      &lt;/root&gt;&#10;    &lt;/mxGraphModel&gt;&#10;  &lt;/diagram&gt;&#10;&lt;/mxfile&gt;&#10;"><defs/><g><g data-cell-id="0"><g data-cell-id="1"><g data-cell-id="3auiam6iOMudNAk3CVAF-1"><g/><g data-cell-id="3auiam6iOMudNAk3CVAF-2"><g><path d="M 47 247 L 47 13.37" fill="none" stroke="#000000" stroke-miterlimit="10" pointer-events="stroke" style="stroke: light-dark(rgb(0, 0, 0), rgb(255, 255, 255));"/><path d="M 47 8.12 L 50.5 15.12 L 47 13.37 L 43.5 15.12 Z" fill="#000000" stroke="#000000" stroke-miterlimit="10" pointer-events="all" style="fill: light-dark(rgb(0, 0, 0), rgb(255, 255, 255)); stroke: light-dark(rgb(0, 0, 0), rgb(255, 255, 255));"/></g><g data-cell-id="3auiam6iOMudNAk3CVAF-3"><g><g><switch><foreignObject style="overflow: visible; text-align: left;" pointer-events="none" width="100%" height="100%" requiredFeatures="http://www.w3.org/TR/SVG11/feature#Extensibility"><div xmlns="http://www.w3.org/1999/xhtml" style="display: flex; align-items: unsafe center; justify-content: unsafe center; width: 1px; height: 1px; padding-top: 22px; margin-left: 38px;"><div style="box-sizing: border-box; font-size: 0; text-align: center; color: #000000; background-color: #ffffff; "><div style="display: inline-block; font-size: 11px; font-family: Helvetica; color: light-dark(#000000, #ffffff); line-height: 1.2; pointer-events: all; background-color: light-dark(#ffffff, var(--ge-dark-color, #121212)); white-space: nowrap; ">y</div></div></div></foreignObject><text x="38" y="25" fill="light-dark(#000000, #ffffff)" font-family="Helvetica" font-size="11px" text-anchor="middle">y</text></switch></g></g></g></g><g data-cell-id="3auiam6iOMudNAk3CVAF-4"><g/><g data-cell-id="3auiam6iOMudNAk3CVAF-5"><g><path d="M 7 207 L 360.63 207" fill="none" stroke="#000000" stroke-miterlimit="10" pointer-events="stroke" style="stroke: light-dark(rgb(0, 0, 0), rgb(255, 255, 255));"/><path d="M 365.88 207 L 358.88 210.5 L 360.63 207 L 358.88 203.5 Z" fill="#000000" stroke="#000000" stroke-miterlimit="10" pointer-events="all" style="fill: light-dark(rgb(0, 0, 0), rgb(255, 255, 255)); stroke: light-dark(rgb(0, 0, 0), rgb(255, 255, 255));"/></g><g data-cell-id="3auiam6iOMudNAk3CVAF-6"><g><g><switch><foreignObject style="overflow: visible; text-align: left;" pointer-events="none" width="100%" height="100%" requiredFeatures="http://www.w3.org/TR/SVG11/feature#Extensibility"><div xmlns="http://www.w3.org/1999/xhtml" style="display: flex; align-items: unsafe center; justify-content: unsafe center; width: 1px; height: 1px; padding-top: 218px; margin-left: 358px;"><div style="box-sizing: border-box; font-size: 0; text-align: center; color: #000000; background-color: #ffffff; "><div style="display: inline-block; font-size: 11px; font-family: Helvetica; color: light-dark(#000000, #ffffff); line-height: 1.2; pointer-events: all; background-color: light-dark(#ffffff, var(--ge-dark-color, #121212)); white-space: nowrap; ">x</div></div></div></foreignObject><text x="358" y="221" fill="light-dark(#000000, #ffffff)" font-family="Helvetica" font-size="11px" text-anchor="middle">x</text></switch></g></g></g></g><g data-cell-id="3auiam6iOMudNAk3CVAF-7"><g><ellipse cx="47" cy="207" rx="3" ry="3" fill="#000000" stroke="none" pointer-events="all" style="fill: light-dark(rgb(0, 0, 0), rgb(255, 255, 255));"/><rect x="37" y="197" width="20" height="20" fill="none" stroke="none" pointer-events="all"/></g><g><g fill="#000000" font-family="Helvetica" text-anchor="middle" font-size="12px" style="fill: light-dark(rgb(0, 0, 0), rgb(255, 255, 255));"><text x="37" y="222">O</text></g></g></g></g></g><g data-cell-id="3auiam6iOMudNAk3CVAF-11"><g><path d="M 47 207 L 47 87 L 167 207 Z" fill="none" stroke="none" pointer-events="all"/><path d="M 46.88 87.14 C 46.88 87.14 46.88 87.14 46.88 87.14 M 46.88 87.14 C 46.88 87.14 46.88 87.14 46.88 87.14 M 47.27 92.79 C 47.22 92.52 48.15 91.38 49.89 89.77 M 47.27 92.79 C 48.45 91.99 48.63 90.77 49.89 89.77 M 47.01 99.18 C 50.3 95.55 49.72 94.98 52.91 92.39 M 47.01 99.18 C 49.17 96.68 51.52 92.81 52.91 92.39 M 46.75 105.58 C 49.24 105.68 49.35 99.65 55.28 95.77 M 46.75 105.58 C 48.97 103.05 52.76 99.42 55.28 95.77 M 47.14 111.22 C 53.26 106.07 54.76 105.52 58.3 98.39 M 47.14 111.22 C 51.88 106.96 55.11 104.02 58.3 98.39 M 46.88 117.62 C 52.36 109.67 51.3 112.06 61.31 101.02 M 46.88 117.62 C 53.73 111.21 58.4 107.61 61.31 101.02 M 47.28 123.27 C 54.37 117.18 54.77 110.65 64.33 103.64 M 47.28 123.27 C 51.46 119.26 55.75 115.01 64.33 103.64 M 47.01 129.66 C 53.73 125.11 59.68 114.87 66.7 107.02 M 47.01 129.66 C 53.31 122.6 57.22 117.6 66.7 107.02 M 46.75 136.06 C 54.04 124.86 66.98 116.84 69.71 109.65 M 46.75 136.06 C 52.12 126.85 59.02 120.79 69.71 109.65 M 47.15 141.7 C 53.13 133.88 60.05 130.77 72.73 112.27 M 47.15 141.7 C 55.12 133.09 59.84 126.84 72.73 112.27 M 46.89 148.1 C 54.7 138.41 70.46 123.28 75.1 115.65 M 46.89 148.1 C 54 139.62 60.88 133.46 75.1 115.65 M 47.28 153.74 C 56.21 147.23 63.56 130.29 78.12 118.27 M 47.28 153.74 C 54.24 144.25 60.73 135.26 78.12 118.27 M 47.02 160.14 C 59.98 144.32 65.93 132.72 81.13 120.9 M 47.02 160.14 C 53.27 149.07 64.09 142.4 81.13 120.9 M 46.76 166.54 C 59.83 149.59 71.34 139.54 84.15 123.52 M 46.76 166.54 C 57.11 154.88 65.24 143.51 84.15 123.52 M 47.15 172.18 C 59.87 159.6 71.86 146.83 86.52 126.9 M 47.15 172.18 C 58.54 158.78 69.07 148.95 86.52 126.9 M 46.89 178.58 C 62.37 155.72 78.18 142.47 89.53 129.52 M 46.89 178.58 C 65.16 160.86 81.89 141.29 89.53 129.52 M 47.29 184.22 C 62.46 165.7 73.97 150.68 92.55 132.15 M 47.29 184.22 C 58.13 174.24 67.92 160.59 92.55 132.15 M 47.02 190.62 C 62.44 173.36 80.26 155.58 94.92 135.53 M 47.02 190.62 C 63.73 171.01 81.62 150.87 94.92 135.53 M 46.76 197.02 C 58.87 182.32 69.3 172.81 97.93 138.15 M 46.76 197.02 C 64.15 177.28 78.81 160.9 97.93 138.15 M 47.16 202.66 C 71.08 183.37 85 159.15 100.95 140.78 M 47.16 202.66 C 68.75 177.13 86.4 157.57 100.95 140.78 M 48.21 207.55 C 65.62 186.59 87.41 164.25 103.97 143.4 M 48.21 207.55 C 68.6 183.22 91.3 161.98 103.97 143.4 M 53.19 207.91 C 66.6 197.25 77.09 182.31 106.34 146.78 M 53.19 207.91 C 73.81 182.23 95.41 160.96 106.34 146.78 M 58.84 207.52 C 74.28 192.83 88.09 172.48 109.35 149.4 M 58.84 207.52 C 77.44 186.74 94.35 165.89 109.35 149.4 M 63.82 207.88 C 81.45 188.11 104.17 160.55 112.37 152.03 M 63.82 207.88 C 78.04 194.32 91.37 175.52 112.37 152.03 M 69.47 207.48 C 81.73 191.13 94.59 179.97 114.74 155.41 M 69.47 207.48 C 87.56 189.39 103.13 167.47 114.74 155.41 M 74.45 207.84 C 88.3 195.01 94.28 179.86 117.75 158.03 M 74.45 207.84 C 82.27 197.92 93.86 186.87 117.75 158.03 M 79.44 208.2 C 97.34 192.88 109.71 169.69 120.77 160.66 M 79.44 208.2 C 91.06 190.48 107.63 174.33 120.77 160.66 M 85.08 207.81 C 91.19 200.27 101.83 181.86 123.79 163.28 M 85.08 207.81 C 93.58 196.25 100.47 188.41 123.79 163.28 M 90.07 208.17 C 103.24 197.19 110.61 185.78 126.16 166.66 M 90.07 208.17 C 99.69 198.86 107.37 188.41 126.16 166.66 M 95.71 207.77 C 102.47 201.27 112.01 190.14 129.17 169.28 M 95.71 207.77 C 107.14 192.99 118.53 181.43 129.17 169.28 M 100.7 208.13 C 113.81 199.53 123.27 183 132.19 171.91 M 100.7 208.13 C 111.61 195.81 121.05 182.77 132.19 171.91 M 106.35 207.74 C 115.22 199.18 120.25 184.25 135.21 174.53 M 106.35 207.74 C 117.6 195.17 128.26 181.13 135.21 174.53 M 111.33 208.1 C 122.5 192.86 131.22 187.21 137.57 177.91 M 111.33 208.1 C 120.34 196.43 128.99 188.22 137.57 177.91 M 116.98 207.7 C 126.96 196.93 128.85 192.75 140.59 180.53 M 116.98 207.7 C 122.42 200.97 127.24 195.66 140.59 180.53 M 121.96 208.06 C 129.32 198.26 133.12 194.24 143.61 183.16 M 121.96 208.06 C 128.99 201.46 137.86 190.67 143.61 183.16 M 127.61 207.67 C 135.24 200.82 137.51 201.16 145.97 186.54 M 127.61 207.67 C 132.88 199.93 139.32 193.15 145.97 186.54 M 132.59 208.03 C 136.74 202.08 137.9 197.16 148.99 189.16 M 132.59 208.03 C 135.96 202.11 140.94 200.04 148.99 189.16 M 138.24 207.64 C 142.16 202.89 144.35 202.25 152.01 191.79 M 138.24 207.64 C 142.69 202.91 144.31 201.05 152.01 191.79 M 143.22 208 C 145.81 203.5 150.24 204.15 155.03 194.41 M 143.22 208 C 144.44 206.03 147.76 202.29 155.03 194.41 M 148.87 207.6 C 150.31 202.11 152.92 199.78 157.39 197.79 M 148.87 207.6 C 151.15 205.74 153.14 204.04 157.39 197.79 M 153.85 207.96 C 156.65 206.44 156.07 203.78 160.41 200.41 M 153.85 207.96 C 157.01 204.36 158.95 201.04 160.41 200.41 M 159.5 207.57 C 161.45 207.46 161.69 206.36 163.43 203.04 M 159.5 207.57 C 161.48 206.36 162.08 204.19 163.43 203.04 M 164.48 207.93 C 165.02 207.23 165.23 206.81 165.79 206.42 M 164.48 207.93 C 164.91 207.27 165.43 206.94 165.79 206.42" fill="none" stroke="#b1ddf0" stroke-opacity="0.25" stroke-width="0.5" stroke-linejoin="round" stroke-linecap="round" stroke-miterlimit="10" pointer-events="all" style="stroke: rgb(177, 221, 240);"/><path d="M 47 207 C 50.61 167.11 44.37 125.12 47 87 M 47 207 C 49.89 170.88 47.3 134.19 47 87 M 47 87 C 96.26 133.23 141.95 181.83 167 207 M 47 87 C 83.63 126.3 126.1 165.35 167 207 M 167 207 C 136.1 207.95 106.57 210.6 47 207 M 167 207 C 136.88 204.02 108.19 204.93 47 207" fill="none" stroke="#10739e" stroke-opacity="0.25" stroke-linejoin="round" stroke-linecap="round" stroke-miterlimit="10" pointer-events="all" style="stroke: rgb(16, 115, 158);"/></g></g><g data-cell-id="3auiam6iOMudNAk3CVAF-13"><g><path d="M 47 87 L 167 207" fill="none" stroke="#000000" stroke-miterlimit="10" pointer-events="stroke" style="stroke: light-dark(rgb(0, 0, 0), rgb(255, 255, 255));"/></g><g data-cell-id="3auiam6iOMudNAk3CVAF-14"><g><g><switch><foreignObject style="overflow: visible; text-align: left;" pointer-events="none" width="100%" height="100%" requiredFeatures="http://www.w3.org/TR/SVG11/feature#Extensibility"><div xmlns="http://www.w3.org/1999/xhtml" style="display: flex; align-items: unsafe center; justify-content: unsafe center; width: 1px; height: 1px; padding-top: 138px; margin-left: 118px;"><div style="box-sizing: border-box; font-size: 0; text-align: center; color: #000000; "><div style="display: inline-block; font-size: 12px; font-family: Helvetica; color: light-dark(#000000, #ffffff); line-height: 1.2; pointer-events: all; white-space: nowrap; ">x+y=2</div></div></div></foreignObject><text x="118" y="142" fill="light-dark(#000000, #ffffff)" font-family="Helvetica" font-size="12px" text-anchor="middle">x+y=2</text></switch></g></g></g><g data-cell-id="3auiam6iOMudNAk3CVAF-15"><g><g><switch><foreignObject style="overflow: visible; text-align: left;" pointer-events="none" width="100%" height="100%" requiredFeatures="http://www.w3.org/TR/SVG11/feature#Extensibility"><div xmlns="http://www.w3.org/1999/xhtml" style="display: flex; align-items: unsafe center; justify-content: unsafe center; width: 1px; height: 1px; padding-top: 167px; margin-left: 78px;"><div style="box-sizing: border-box; font-size: 0; text-align: center; color: #000000; "><div style="display: inline-block; font-size: 12px; font-family: Helvetica; color: light-dark(#000000, #ffffff); line-height: 1.2; pointer-events: all; white-space: nowrap; ">D</div></div></div></foreignObject><text x="78" y="171" fill="light-dark(#000000, #ffffff)" font-family="Helvetica" font-size="12px" text-anchor="middle">D</text></switch></g></g></g></g></g></g></g><switch><g requiredFeatures="http://www.w3.org/TR/SVG11/feature#Extensibility"/><a transform="translate(0,-5)" xlink:href="https://www.drawio.com/doc/faq/svg-export-text-problems" target="_blank"><text text-anchor="middle" font-size="10px" x="50%" y="100%">Text is not SVG - cannot display</text></a></switch></svg>